<?xml version="1.0" encoding="utf-8"?>
<!-- Generator: Adobe Illustrator 21.1.0, SVG Export Plug-In . SVG Version: 6.00 Build 0)  -->
<svg version="1.1" id="Layer_1" xmlns="http://www.w3.org/2000/svg" xmlns:xlink="http://www.w3.org/1999/xlink" x="0px" y="0px"
	 viewBox="0 0 220.8 96.3" style="enable-background:new 0 0 220.8 96.3;" xml:space="preserve">
<style type="text/css">
	.st0{clip-path:url(#SVGID_2_);}
	.st1{fill:url(#SVGID_3_);}
	.st2{clip-path:url(#SVGID_5_);}
	.st3{fill:url(#SVGID_6_);}
	.st4{clip-path:url(#SVGID_8_);}
	.st5{fill:url(#SVGID_9_);}
	.st6{clip-path:url(#SVGID_11_);}
	.st7{fill:url(#SVGID_12_);}
	.st8{clip-path:url(#SVGID_14_);}
	.st9{fill:url(#SVGID_15_);}
	.st10{clip-path:url(#SVGID_17_);}
	.st11{fill:url(#SVGID_18_);}
	.st12{clip-path:url(#SVGID_20_);}
	.st13{fill:url(#SVGID_21_);}
	.st14{clip-path:url(#SVGID_23_);}
	.st15{fill:url(#SVGID_24_);}
	.st16{clip-path:url(#SVGID_26_);}
	.st17{fill:url(#SVGID_27_);}
	.st18{clip-path:url(#SVGID_29_);}
	.st19{fill:url(#SVGID_30_);}
	.st20{clip-path:url(#SVGID_32_);}
	.st21{fill:url(#SVGID_33_);}
	.st22{clip-path:url(#SVGID_35_);}
	.st23{fill:url(#SVGID_36_);}
	.st24{clip-path:url(#SVGID_38_);}
	.st25{fill:url(#SVGID_39_);}
	.st26{clip-path:url(#SVGID_41_);}
	.st27{fill:url(#SVGID_42_);}
	.st28{clip-path:url(#SVGID_44_);}
	.st29{fill:url(#SVGID_45_);}
	.st30{fill:#523111;}
	.st31{clip-path:url(#SVGID_47_);}
	.st32{fill:#523010;}
</style>
<title>Asset 1</title>
<g id="Layer_2">
	<g id="Layer_1-2">
		<g>
			<defs>
				<path id="SVGID_1_" d="M105.8,8.8L105.8,8.8c0.9,3,5.2,4.5,8.2,4.4c-2-2.6-4.7-4.7-7.8-5.9C106,7.8,105.9,8.4,105.8,8.8"/>
			</defs>
			<clipPath id="SVGID_2_">
				<use xlink:href="#SVGID_1_"  style="overflow:visible;"/>
			</clipPath>
			<g class="st0">
				
					<linearGradient id="SVGID_3_" gradientUnits="userSpaceOnUse" x1="-766.5781" y1="25.1315" x2="-765.5781" y2="25.1315" gradientTransform="matrix(0 -24.8 24.8 0 -513.3801 -18966.2988)">
					<stop  offset="0" style="stop-color:#BF944F"/>
					<stop  offset="4.000000e-02" style="stop-color:#BF944F"/>
					<stop  offset="0.61" style="stop-color:#7D5B35"/>
					<stop  offset="0.99" style="stop-color:#523111"/>
					<stop  offset="1" style="stop-color:#523111"/>
				</linearGradient>
				<rect x="105.8" y="7.4" class="st1" width="8.2" height="6"/>
			</g>
		</g>
		<g>
			<defs>
				<path id="SVGID_4_" d="M101.5,18.1c0,0,0.1,0.1,0.1,0.1c3.8,5.8,10.3,7.6,16.8,6.4c-0.4-1.8-0.9-3.5-1.4-5.1
					c-5,1.5-10.7,0.5-14.2-3.5C102.4,16.7,102,17.4,101.5,18.1"/>
			</defs>
			<clipPath id="SVGID_5_">
				<use xlink:href="#SVGID_4_"  style="overflow:visible;"/>
			</clipPath>
			<g class="st2">
				
					<linearGradient id="SVGID_6_" gradientUnits="userSpaceOnUse" x1="-766.5781" y1="25.1351" x2="-765.5781" y2="25.1351" gradientTransform="matrix(0 -24.8 24.8 0 -513.3801 -18966.2988)">
					<stop  offset="0" style="stop-color:#BF944F"/>
					<stop  offset="4.000000e-02" style="stop-color:#BF944F"/>
					<stop  offset="0.61" style="stop-color:#7D5B35"/>
					<stop  offset="0.99" style="stop-color:#523111"/>
					<stop  offset="1" style="stop-color:#523111"/>
				</linearGradient>
				<rect x="101.5" y="16" class="st3" width="16.9" height="9.8"/>
			</g>
		</g>
		<g>
			<defs>
				<path id="SVGID_7_" d="M103.7,14.3c3,4.1,8.2,5.8,13,4.2c-0.5-1.5-1.2-2.9-2-4.2h-0.1c-3,0.5-7.5-0.6-9.6-3.2
					C104.5,12.2,104.1,13.3,103.7,14.3"/>
			</defs>
			<clipPath id="SVGID_8_">
				<use xlink:href="#SVGID_7_"  style="overflow:visible;"/>
			</clipPath>
			<g class="st4">
				
					<linearGradient id="SVGID_9_" gradientUnits="userSpaceOnUse" x1="-766.5781" y1="25.1432" x2="-765.5781" y2="25.1432" gradientTransform="matrix(0 -24.8 24.8 0 -513.3801 -18966.2988)">
					<stop  offset="0" style="stop-color:#BF944F"/>
					<stop  offset="4.000000e-02" style="stop-color:#BF944F"/>
					<stop  offset="0.61" style="stop-color:#7D5B35"/>
					<stop  offset="0.99" style="stop-color:#523111"/>
					<stop  offset="1" style="stop-color:#523111"/>
				</linearGradient>
				<rect x="103.7" y="11.2" class="st5" width="13" height="8.9"/>
			</g>
		</g>
		<g>
			<defs>
				<path id="SVGID_10_" d="M90.2,26.2c3.5,10.4,14.8,16.1,25.3,12.6c1.7-0.6,3.3-1.4,4.8-2.4c0-0.9-0.1-1.8-0.2-2.7
					c-3.6,2.1-7.8,3.1-12,2.9c-7.3-0.4-12.6-4.4-15.7-10.9C91.7,26,91,26.1,90.2,26.2"/>
			</defs>
			<clipPath id="SVGID_11_">
				<use xlink:href="#SVGID_10_"  style="overflow:visible;"/>
			</clipPath>
			<g class="st6">
				
					<linearGradient id="SVGID_12_" gradientUnits="userSpaceOnUse" x1="-766.5781" y1="24.9448" x2="-765.5781" y2="24.9448" gradientTransform="matrix(0 -24.8 24.8 0 -513.3801 -18966.2988)">
					<stop  offset="0" style="stop-color:#BF944F"/>
					<stop  offset="4.000000e-02" style="stop-color:#BF944F"/>
					<stop  offset="0.61" style="stop-color:#7D5B35"/>
					<stop  offset="0.99" style="stop-color:#523111"/>
					<stop  offset="1" style="stop-color:#523111"/>
				</linearGradient>
				<rect x="90.2" y="25.7" class="st7" width="30.1" height="14.1"/>
			</g>
		</g>
		<g>
			<defs>
				<path id="SVGID_13_" d="M89.2,20.6c0,1.5,0.2,3,0.7,4.4c6.3-0.5,13.8-8.8,14.7-18.3c-0.7-0.2-1.3-0.4-2-0.6
					C100.3,14.4,95.5,19.9,89.2,20.6"/>
			</defs>
			<clipPath id="SVGID_14_">
				<use xlink:href="#SVGID_13_"  style="overflow:visible;"/>
			</clipPath>
			<g class="st8">
				
					<linearGradient id="SVGID_15_" gradientUnits="userSpaceOnUse" x1="-766.5781" y1="24.6061" x2="-765.5781" y2="24.6061" gradientTransform="matrix(0 -24.8 24.8 0 -513.3801 -18966.2988)">
					<stop  offset="0" style="stop-color:#BF944F"/>
					<stop  offset="4.000000e-02" style="stop-color:#BF944F"/>
					<stop  offset="0.61" style="stop-color:#7D5B35"/>
					<stop  offset="0.99" style="stop-color:#523111"/>
					<stop  offset="1" style="stop-color:#523111"/>
				</linearGradient>
				<rect x="89.2" y="6.2" class="st9" width="15.4" height="18.9"/>
			</g>
		</g>
		<g>
			<defs>
				<path id="SVGID_16_" d="M90.5,12.6c3.2-1.2,5.8-3.9,5.7-7.4h-0.6C93.4,7.3,91.6,9.9,90.5,12.6"/>
			</defs>
			<clipPath id="SVGID_17_">
				<use xlink:href="#SVGID_16_"  style="overflow:visible;"/>
			</clipPath>
			<g class="st10">
				
					<linearGradient id="SVGID_18_" gradientUnits="userSpaceOnUse" x1="-766.5781" y1="24.4673" x2="-765.5781" y2="24.4673" gradientTransform="matrix(0 -24.8 24.8 0 -513.3801 -18966.2988)">
					<stop  offset="0" style="stop-color:#BF944F"/>
					<stop  offset="4.000000e-02" style="stop-color:#BF944F"/>
					<stop  offset="0.61" style="stop-color:#7D5B35"/>
					<stop  offset="0.99" style="stop-color:#523111"/>
					<stop  offset="1" style="stop-color:#523111"/>
				</linearGradient>
				<rect x="90.5" y="5.2" class="st11" width="5.8" height="7.4"/>
			</g>
		</g>
		<g>
			<defs>
				<path id="SVGID_19_" d="M90,14c-0.5,1.8-0.8,3.6-0.9,5.4c6.1-1.5,11.2-7.3,11.7-13.5l0,0c-0.9-0.2-1.9-0.3-2.9-0.4
					C97.8,9.8,93.3,14.1,90,14"/>
			</defs>
			<clipPath id="SVGID_20_">
				<use xlink:href="#SVGID_19_"  style="overflow:visible;"/>
			</clipPath>
			<g class="st12">
				
					<linearGradient id="SVGID_21_" gradientUnits="userSpaceOnUse" x1="-766.5781" y1="24.5321" x2="-765.5781" y2="24.5321" gradientTransform="matrix(0 -24.8 24.8 0 -513.3801 -18966.2988)">
					<stop  offset="0" style="stop-color:#BF944F"/>
					<stop  offset="4.000000e-02" style="stop-color:#BF944F"/>
					<stop  offset="0.61" style="stop-color:#7D5B35"/>
					<stop  offset="0.99" style="stop-color:#523111"/>
					<stop  offset="1" style="stop-color:#523111"/>
				</linearGradient>
				<rect x="89.2" y="5.4" class="st13" width="11.7" height="14"/>
			</g>
		</g>
		<g>
			<defs>
				<path id="SVGID_22_" d="M110.6,0c4.6,1.5,8.7,4.3,11.7,8.1c2.9,3.5,5.1,7.5,6.7,11.7C129,9.5,121,0.8,110.6,0z"/>
			</defs>
			<clipPath id="SVGID_23_">
				<use xlink:href="#SVGID_22_"  style="overflow:visible;"/>
			</clipPath>
			<g class="st14">
				
					<linearGradient id="SVGID_24_" gradientUnits="userSpaceOnUse" x1="-766.5781" y1="25.5325" x2="-765.5781" y2="25.5325" gradientTransform="matrix(0 -24.8 24.8 0 -513.3801 -18966.2988)">
					<stop  offset="0" style="stop-color:#BF944F"/>
					<stop  offset="4.000000e-02" style="stop-color:#BF944F"/>
					<stop  offset="0.61" style="stop-color:#7D5B35"/>
					<stop  offset="0.99" style="stop-color:#523111"/>
					<stop  offset="1" style="stop-color:#523111"/>
				</linearGradient>
				<rect x="110.6" class="st15" width="18.5" height="19.9"/>
			</g>
		</g>
		<g>
			<defs>
				<path id="SVGID_25_" d="M94.1,25c4.3,9.1,15,13.6,25.9,7.4c-0.1-1-0.2-1.2-0.3-2.2c-7.6,4.1-19.6,1.5-23.3-6.6
					C95.6,24.2,94.9,24.6,94.1,25"/>
			</defs>
			<clipPath id="SVGID_26_">
				<use xlink:href="#SVGID_25_"  style="overflow:visible;"/>
			</clipPath>
			<g class="st16">
				
					<linearGradient id="SVGID_27_" gradientUnits="userSpaceOnUse" x1="-766.5781" y1="25.0169" x2="-765.5781" y2="25.0169" gradientTransform="matrix(0 -24.8 24.8 0 -513.3801 -18966.2988)">
					<stop  offset="0" style="stop-color:#BF944F"/>
					<stop  offset="4.000000e-02" style="stop-color:#BF944F"/>
					<stop  offset="0.61" style="stop-color:#7D5B35"/>
					<stop  offset="0.99" style="stop-color:#523111"/>
					<stop  offset="1" style="stop-color:#523111"/>
				</linearGradient>
				<rect x="94.1" y="23.7" class="st17" width="25.9" height="15"/>
			</g>
		</g>
		<g>
			<defs>
				<path id="SVGID_28_" d="M97.9,22.4c2.8,7.4,13.1,10.3,21.6,6.6c-0.2-1.3-0.5-2.1-0.8-3.4c-6.9,1.4-14-0.2-18.2-6
					C99.7,20.6,98.8,21.6,97.9,22.4"/>
			</defs>
			<clipPath id="SVGID_29_">
				<use xlink:href="#SVGID_28_"  style="overflow:visible;"/>
			</clipPath>
			<g class="st18">
				
					<linearGradient id="SVGID_30_" gradientUnits="userSpaceOnUse" x1="-766.5781" y1="25.0831" x2="-765.5781" y2="25.0831" gradientTransform="matrix(0 -24.8 24.8 0 -513.3801 -18966.2988)">
					<stop  offset="0" style="stop-color:#BF944F"/>
					<stop  offset="4.000000e-02" style="stop-color:#BF944F"/>
					<stop  offset="0.61" style="stop-color:#7D5B35"/>
					<stop  offset="0.99" style="stop-color:#523111"/>
					<stop  offset="1" style="stop-color:#523111"/>
				</linearGradient>
				<rect x="97.9" y="19.6" class="st19" width="21.6" height="13.1"/>
			</g>
		</g>
		<g>
			<defs>
				<path id="SVGID_31_" d="M103,0.9c6.9,1.5,11.6,3.6,16.7,10.3c4.3,5.8,6.3,12.9,5.8,20.1c1.4-2,2.4-4.3,3-6.8
					c-0.9-4.4-2.7-8.6-5.2-12.3c-3.7-5.3-9.6-11.2-16.4-12.1C105.5,0.2,104.2,0.5,103,0.9"/>
			</defs>
			<clipPath id="SVGID_32_">
				<use xlink:href="#SVGID_31_"  style="overflow:visible;"/>
			</clipPath>
			<g class="st20">
				
					<linearGradient id="SVGID_33_" gradientUnits="userSpaceOnUse" x1="-766.5781" y1="25.3682" x2="-765.5781" y2="25.3682" gradientTransform="matrix(0 -24.8 24.8 0 -513.3801 -18966.2988)">
					<stop  offset="0" style="stop-color:#BF944F"/>
					<stop  offset="4.000000e-02" style="stop-color:#BF944F"/>
					<stop  offset="0.61" style="stop-color:#7D5B35"/>
					<stop  offset="0.99" style="stop-color:#523111"/>
					<stop  offset="1" style="stop-color:#523111"/>
				</linearGradient>
				<rect x="103" y="0.1" class="st21" width="25.5" height="31.2"/>
			</g>
		</g>
		<g>
			<defs>
				<path id="SVGID_34_" d="M97,4c25.3-0.2,24.5,28,24.4,30.8c-0.4,8.6-11.3,7.8-19,6.7c-9.4-1.2-18.6-4.1-27.7-6.4
					c-15.9-4-32.5-4.2-48.4-0.5c-7,1.6-14.3,4.4-19.1,10C0,53,7.8,60.9,16.8,61.7c9.6,0.9,19.5-3.7,28.3-6.7
					c5.2-1.8,10.5-3,15.6-4.8c3.3-1.1,6.5-2.2,9.8-3.1c2.6-0.7,9.7-3.3,8.8,1.2c-0.1,0.5,1.8,0.2,1.9-0.3l0.5-2.6
					c0-0.2-0.2-0.2-0.3-0.3c-9.1-0.8-18,3.6-26.5,6.2c-10.7,3.3-21.8,8.2-32.9,9.4c-6.5,0.7-14.1-1.3-15.7-8.5
					c-1.2-5.2,4.1-9.9,7.9-12.4c8.9-5.8,21.1-6.6,31.4-7c8.1-0.4,16.2,0.3,24.2,2.1c8.6,2,17.1,4.6,25.7,6.3
					c9.4,1.9,26.3,5.4,28.2-8.7c1-7.2-2.1-16.7-5.6-20.9c-5.1-6.1-9.8-8.7-17-10.2C99.6,2.2,98.2,3,97,4"/>
			</defs>
			<clipPath id="SVGID_35_">
				<use xlink:href="#SVGID_34_"  style="overflow:visible;"/>
			</clipPath>
			<g class="st22">
				
					<linearGradient id="SVGID_36_" gradientUnits="userSpaceOnUse" x1="-766.5781" y1="23.2119" x2="-765.5781" y2="23.2119" gradientTransform="matrix(0 -24.8 24.8 0 -513.3801 -18966.2988)">
					<stop  offset="0" style="stop-color:#BF944F"/>
					<stop  offset="4.000000e-02" style="stop-color:#BF944F"/>
					<stop  offset="0.61" style="stop-color:#7D5B35"/>
					<stop  offset="0.99" style="stop-color:#523111"/>
					<stop  offset="1" style="stop-color:#523111"/>
				</linearGradient>
				<rect y="1.6" class="st23" width="124.6" height="61"/>
			</g>
		</g>
		<g>
			<defs>
				<path id="SVGID_37_" d="M63.9,76.5c0-1.1,0.3-2.2,0.7-3.2c0.4-1,1-2.1,1.6-3c1-1.6,2.2-3,3.5-4.4c0.4-0.5,2.3-2.2,3-2.3
					c0,0.7-0.3,1.4-0.8,2c-0.3,0.5-0.6,1.1-0.9,1.6c-0.8,1.5-1.6,3-2.4,4.4c-0.5,0.8-1,1.6-1.5,2.4c-0.7,1.2-1.7,2.4-2.8,3.3
					c-0.1,0-0.1,0-0.2,0.1C63.8,77.2,63.8,76.8,63.9,76.5 M80.3,50.6c-0.6,0.1-1.1,0.7-1.4,1c-2.4,2.5-8.1,7.6-10,9L69,61
					c0.3,0.2,0.6,0.3,0.9,0.3c0.4,0,4.4-3.4,4.8-3.4c0.1,0.3-0.4,1.7-1.5,4.2c-1.7,0.8-3.3,1.9-4.6,3.3c-5.5,5.6-6.1,11.2-6,12
					s0.6,1.8,1.9,1.4c1.3-0.4,3.8-4.2,4.3-4.9c1.3-2,5.5-9.6,5.8-10.1c1.9-2.9,8-6.3,8.1-6.4c0.5-0.2,1.1,0,1.6,0.3
					c0,0.8-0.4,0.9-1,1.7c-0.9,1.1-1.2,1.4-1.2,1.5c0,0.2,0.1,0.5,0.2,0.7c0.8,0.2,7-5.2,7.8-6c0.1,0.1,0.2,0.2,0.2,0.4
					c-0.2,0.8-0.6,1.5-1.1,2.1c-0.6,0.7-0.9,1.5-1,2.3c0,0.3,0.1,0.5,0.3,0.7c0.7,0.2,1.5-0.1,2-0.7c0.9-1.1,1.9-2.1,2.9-3.1
					c0.9-0.9,1.9-1.6,2.9-2.3h0.2v0.2c-3.4,3.8-7,13.9-7,13.9c-0.7,2.1-1.1,3.5-1.3,4.2c0.1,0.3,1.4-0.1,1.7-1.1
					c0.4-1.8,5.3-15.9,11.9-20.1c0.5-0.3,0.5-1.5,0.2-1.5c-0.5,0-1,0.2-1.5,0.5c-2.2,1.5-3.5,2.4-4,2.6c-2.4,1.9-4,3.1-4.9,3.8
					c-0.1,0-0.3,0-0.4-0.1c1.5-1.8,3.1-3.4,4.8-5c0.2-1-0.2-1.4-1.2-1.4c-3.6,2.1-8.2,6.2-9.1,6.9c-0.1-0.1-0.1-0.2-0.1-0.3
					c1.6-1.9,5.7-6.1,5.8-6.2c0-0.1-0.1-0.3-0.2-0.4c-0.5,0-1,0.2-1.4,0.6c-1.9,1.8-3.9,3.5-5.9,5.2c0.2-0.4-0.8-0.8-1.1-0.8
					c-0.6,0-5.4,3.9-5.9,4.1s-1.7,1-1.6,0.5c0.6-1.6,1.4-3.1,2.4-4.4c0.7-0.8,2.3-2.6,2.9-3.4c0.3-0.4,0.5-0.8,0.5-1.3
					C81.2,51,80.9,50.6,80.3,50.6L80.3,50.6"/>
			</defs>
			<clipPath id="SVGID_38_">
				<use xlink:href="#SVGID_37_"  style="overflow:visible;"/>
			</clipPath>
			<g class="st24">
				
					<linearGradient id="SVGID_39_" gradientUnits="userSpaceOnUse" x1="-766.5781" y1="24.0258" x2="-765.5781" y2="24.0258" gradientTransform="matrix(0 -24.8 24.8 0 -513.3801 -18966.2988)">
					<stop  offset="0" style="stop-color:#BF944F"/>
					<stop  offset="4.000000e-02" style="stop-color:#BF944F"/>
					<stop  offset="0.61" style="stop-color:#7D5B35"/>
					<stop  offset="0.99" style="stop-color:#523111"/>
					<stop  offset="1" style="stop-color:#523111"/>
				</linearGradient>
				<rect x="62.5" y="50.6" class="st25" width="39.8" height="28.7"/>
			</g>
		</g>
		<g>
			<defs>
				<path id="SVGID_40_" d="M108.9,54.5c1.1-1.1,2.6-1.8,4.2-1.9c0.2,1-1.3,1.8-2,2.3c-1,0.8-2.1,1.3-3.3,1.6
					C107.3,55.8,108.4,55,108.9,54.5 M121.2,51.7c-0.6-0.3,0.6-2,2.3-3.7c0.9-0.9,9.8-12.7,11.7-11.7c0.3,2.4-3.2,5.4-4.7,6.8
					C128.3,45.3,122,51.7,121.2,51.7L121.2,51.7 M130.2,52c-0.6,0,2.3-3.7,2.8-4.3c1.5-1.9,10.9-12.3,11.5-11.4
					c-0.1,1-0.4,2-0.9,2.9c-0.6,0.8-8.5,8.4-9.7,9.6S130.8,52,130.2,52L130.2,52 M140.2,38c-2.6,2.8-4.3,4.8-5.3,6
					c-2.6,3.3-3.9,5-4,5.2c-0.5,0.8-1.1,1.7-1.8,2.4c-0.7,0.9-1.4,1.8-2.2,2.6c-1.6,1.6-3.6,2.7-5.2,4.3c-0.9,0.8-4.7,4.1-4.4,0.9
					c0.3-3.5,2.9-5.2,5.3-7.2c4.5-3.7,8.6-7.7,12.3-12.2c1-1,1.6-2.4,1.5-3.8c-0.4-3-4.6,1-5.4,1.8c-2.6,2.8-4.3,4.8-5.3,6
					c-2.6,3.3-3.9,5-4,5.2c-1.6,2.2-3.4,4.3-5.3,6.2c-0.8,0.8-5.3,4-6.5,4.2c-0.7,0.2-2.6,0.6-3.1-0.3c-0.6-1.4,3.2-2.8,4.1-3.4
					c1.5-0.9,4.5-2.8,4.3-5c-0.1-1.5-2.8,0.2-3.3,0.5c-1.9,1-3.5,2.3-4.9,4c-1,1.2-2.4,3.1-1.9,4.8c1,2.9,6.7-0.4,8.1-1.3
					c0.8-0.6,1.5-1.4,2.4-1.9c-1.2,2.8-0.3,5,0.3,5.7c0.9,1,2.5,0.2,3.4-0.4c1.8-1.3,3.5-2.8,5.1-4.3c0.4-0.4,0.9-0.7,1.4-1
					c-0.3,1.4-1.4,2.8-1.3,4.3c0.3,4,5,0.3,6.3-1c0.6-0.6,1.2-1.3,1.9-1.8c1.8,6.4,9.3-1,11.6-3c0.8-0.9,1.8-1.6,2.9-2.2
					c0,0-0.4,2-0.4,2.2c-0.3,0.8-1.4,3.3-2.2,3.8c-0.9,0.6-3.5,0-3.6,1.2c-0.1,0.7,0.3,1.4,0.9,1.6c1.3,0.5,2.2-0.3,3.1-1.1
					c0.9-0.8,1.8-1.5,2.9-2c3.5-1.8,7.5-2.9,11.2-4.2c3.2-1.2,6.6-2,10-2.2c2-0.1,4,0.1,5.9,0.6c7.9,2,14.6,7.1,22.6,8.6
					c9.5,1.8,21.6-4.8,19.7-15.7c-1.8-10.2-15.8-11.9-23.2-7.4c-2.7,1.6-6.3,4.5-6.3,8c0,4.6,5,5.5,8.6,5.8c0.5,0,2.2-0.8,1.2-0.9
					c-3.6-0.3-8.5-1.4-7.9-6c0.5-4,5.2-6.9,8.7-8c11.8-3.7,22.3,9.7,13.9,19.3c-9.8,11.3-26.6-2.1-37.3-4.8
					c-6.9-1.7-13.7,1.1-20.1,3.5c-1.3,0.5-2.6,1-4,1.4c-4.6,1.3-0.2-4.8-2.1-5.2l-0.5-0.1l-1.3,0.2c-1.1,0.2-2.5,1.4-3.3,2
					c-1,0.7-4.5,4-5.4,4.8c-0.7,0.7-3.1,2.6-3.8,0.8s5.5-4.6,3.6-6.3c-1.3-1.2-3,1-3.7,1.9c-1.5,1.7-3.2,3.3-5,4.7
					c-0.7,0.6-2.9,2.6-3,0.6c-0.1-3.3,2.6-5.9,5.4-8c0.9-0.7,6.7-6.2,7.6-7.1c1.4-1.5,3.6-3.5,4.6-4.6s2.8-4.2,1.1-5.4
					c-0.1-0.1-0.3-0.2-0.5-0.2c-1.4,0-3.8,2.5-4.4,3.1"/>
			</defs>
			<clipPath id="SVGID_41_">
				<use xlink:href="#SVGID_40_"  style="overflow:visible;"/>
			</clipPath>
			<g class="st26">
				
					<linearGradient id="SVGID_42_" gradientUnits="userSpaceOnUse" x1="-766.5781" y1="27.2575" x2="-765.5781" y2="27.2575" gradientTransform="matrix(0 -24.8 24.8 0 -513.3801 -18966.2988)">
					<stop  offset="0" style="stop-color:#BF944F"/>
					<stop  offset="4.000000e-02" style="stop-color:#BF944F"/>
					<stop  offset="0.61" style="stop-color:#7D5B35"/>
					<stop  offset="0.99" style="stop-color:#523111"/>
					<stop  offset="1" style="stop-color:#523111"/>
				</linearGradient>
				<rect x="104.5" y="33" class="st27" width="116.3" height="35"/>
			</g>
		</g>
		<g>
			<defs>
				<path id="SVGID_43_" d="M138.2,50.2c0,0.7,0.5,1.2,1.2,1.3c0.7,0,1.2-0.5,1.3-1.2c0-0.7-0.5-1.2-1.2-1.3c0,0,0,0,0,0
					C138.8,49,138.2,49.6,138.2,50.2"/>
			</defs>
			<clipPath id="SVGID_44_">
				<use xlink:href="#SVGID_43_"  style="overflow:visible;"/>
			</clipPath>
			<g class="st28">
				
					<linearGradient id="SVGID_45_" gradientUnits="userSpaceOnUse" x1="-766.5781" y1="26.3236" x2="-765.5781" y2="26.3236" gradientTransform="matrix(0 -24.8 24.8 0 -513.3801 -18966.2988)">
					<stop  offset="0" style="stop-color:#BF944F"/>
					<stop  offset="4.000000e-02" style="stop-color:#BF944F"/>
					<stop  offset="0.61" style="stop-color:#7D5B35"/>
					<stop  offset="0.99" style="stop-color:#523111"/>
					<stop  offset="1" style="stop-color:#523111"/>
				</linearGradient>
				<rect x="138.2" y="49" class="st29" width="2.5" height="2.5"/>
			</g>
		</g>
		<path class="st30" d="M17.6,78.5c0.1,0.1,0.1,0.1,0.2,0c0.7-1,1.7-1.7,2.7-2.2c1-0.5,2.1-0.8,3.2-0.8c2.4,0,4.1,0.7,5.2,2
			c1.1,1.5,1.7,3.3,1.6,5.2v7.8c0,0.7,0,1.3,0.1,1.8c0,0.4,0.1,0.7,0.3,1.1c0.2,0.3,0.4,0.5,0.7,0.6c0.5,0.2,0.9,0.3,1.4,0.4
			c0.2,0,0.3,0.1,0.4,0.3c0.1,0.1,0.1,0.3,0.1,0.4c0,0.1,0,0.3-0.1,0.4c-0.1,0.1-0.2,0.2-0.3,0.2c-0.6,0-1.2-0.1-1.8-0.2
			c-0.8-0.1-1.7-0.1-2.5-0.2c-0.9,0-1.8,0.1-2.7,0.2c-0.7,0.1-1.5,0.1-2.2,0.2c-0.2,0-0.3-0.1-0.4-0.2c-0.1-0.1-0.1-0.3-0.1-0.4
			c0-0.2,0-0.3,0.1-0.4c0.1-0.1,0.3-0.2,0.4-0.2c0.5-0.1,1-0.2,1.5-0.3c0.3-0.1,0.6-0.3,0.8-0.6c0.2-0.3,0.3-0.7,0.3-1.1
			c0-0.4,0.1-1,0.1-1.7V84c0-0.7-0.1-1.4-0.1-2.1c-0.1-0.6-0.3-1.3-0.5-1.9c-0.3-0.6-0.7-1.1-1.2-1.4c-0.6-0.4-1.3-0.6-2-0.6
			c-0.8,0-1.6,0.2-2.3,0.5c-0.6,0.3-1.1,0.7-1.6,1.2c-0.4,0.5-0.7,1-0.9,1.5c-0.2,0.4-0.3,0.9-0.3,1.4v7.5c0,0.8,0,1.4,0,1.9
			c0,0.4,0.1,0.8,0.2,1.2c0.1,0.3,0.4,0.5,0.7,0.7c0.4,0.2,0.8,0.3,1.2,0.4c0.2,0,0.3,0.1,0.4,0.3c0.1,0.1,0.1,0.3,0.1,0.4
			c0,0.1,0,0.3-0.1,0.4c-0.1,0.1-0.2,0.2-0.4,0.2c-0.6,0-1.1-0.1-1.7-0.2c-0.8-0.1-1.6-0.2-2.4-0.2c-0.9,0-1.7,0-2.6,0.2
			c-0.7,0.1-1.5,0.1-2.2,0.2c-0.2,0-0.3-0.1-0.4-0.2c-0.1-0.1-0.1-0.3-0.1-0.4c0-0.2,0-0.3,0.1-0.4c0.1-0.1,0.3-0.2,0.4-0.2
			c0.5-0.1,1-0.2,1.5-0.3c0.3-0.1,0.6-0.3,0.8-0.6c0.2-0.3,0.3-0.7,0.3-1.1c0-0.4,0.1-1,0.1-1.7V73.8c0-1.2,0-2.2-0.1-2.9
			c0-0.6-0.2-1.1-0.4-1.7c-0.2-0.4-0.6-0.7-1-0.8c-0.6-0.2-1.2-0.3-1.9-0.3c-0.1,0-0.3-0.1-0.3-0.2c-0.1-0.1-0.1-0.3-0.1-0.4
			c0-0.2,0-0.3,0.1-0.5c0.1-0.1,0.2-0.2,0.4-0.2c0.8-0.1,1.8-0.1,3-0.2c1.1-0.1,2.3-0.3,3.3-0.6c0.4-0.1,0.7-0.1,0.8,0.1
			c0.1,0.1,0.2,0.3,0.2,0.5L17.6,78.5z"/>
		<path class="st30" d="M46,86.6c0-0.2,0-0.4,0-0.6c0-0.1-0.1-0.1-0.2-0.1c-1.8,0-3.6,0.5-5.2,1.5c-1.7,1.1-2.2,3.4-1.1,5.1
			c0,0,0,0.1,0.1,0.1c0.5,0.6,1.3,0.9,2.1,0.9c0.7,0,1.4-0.1,2.1-0.4c0.7-0.2,1.4-0.6,1.9-1.1c0.2-0.2,0.3-0.4,0.3-0.7L46,86.6z
			 M50,90.7c0,0.7,0.1,1.4,0.3,2.1c0.2,0.4,0.6,0.6,1.1,0.6c0.3,0,0.5,0,0.8-0.1c0.3-0.1,0.6-0.3,0.8-0.4c0.1-0.1,0.2-0.1,0.3,0
			c0.1,0.1,0.2,0.1,0.2,0.2c0.1,0.1,0.1,0.2,0.2,0.3c0,0.1,0,0.2-0.1,0.3c-0.9,1.2-2.4,2-3.9,2c-0.8,0-1.5-0.2-2.1-0.7
			c-0.5-0.4-1-0.9-1.3-1.6c-0.1-0.1-0.1-0.2-0.2,0c-0.8,0.7-1.6,1.2-2.6,1.6c-1.2,0.5-2.4,0.7-3.7,0.6c-1.4,0.1-2.8-0.4-3.8-1.3
			c-0.9-1-1.4-2.3-1.3-3.7c0-2,1.1-3.8,2.8-4.7c1.9-1.1,4.6-1.6,8.3-1.6c0.1,0,0.1-0.1,0.1-0.2c0-0.3,0-0.7,0-1v-1.1
			c0-0.7-0.1-1.3-0.2-2c-0.1-0.6-0.3-1.1-0.6-1.6c-0.3-0.5-0.7-0.8-1.1-1.1c-0.5-0.3-1.2-0.4-1.8-0.4c-0.9,0-1.8,0.2-2.5,0.6
			c-0.6,0.3-1,0.9-1,1.6c0,0.3,0.1,0.6,0.3,0.9c0.2,0.3,0.3,0.6,0.3,0.9c0,0.4-0.2,0.9-0.6,1.1c-0.4,0.4-0.9,0.6-1.4,0.6
			c-0.6,0.1-1.2-0.2-1.6-0.6c-0.3-0.4-0.5-1-0.5-1.5c0-0.7,0.2-1.4,0.6-2c0.4-0.7,1-1.2,1.7-1.6c0.7-0.5,1.5-0.8,2.4-1.1
			c0.9-0.3,1.9-0.4,2.8-0.4c1.9-0.1,3.8,0.4,5.3,1.5c1.3,1,2,2.8,2,5.2L50,90.7z"/>
		<path class="st30" d="M62.1,90.2c0,0.7,0,1.3,0,1.8c0,0.4,0.1,0.8,0.2,1.2c0.1,0.3,0.3,0.6,0.6,0.7c0.4,0.2,0.8,0.3,1.3,0.4
			c0.2,0,0.3,0.1,0.4,0.2c0.1,0.1,0.1,0.3,0.1,0.4c0,0.1,0,0.3-0.1,0.4c-0.1,0.1-0.2,0.2-0.4,0.2c-0.5,0-1.1-0.1-1.6-0.2
			c-0.8-0.1-1.6-0.2-2.4-0.2c-0.9,0-1.8,0-2.6,0.2c-0.8,0.1-1.6,0.1-2.4,0.2c-0.1,0-0.3-0.1-0.3-0.2c-0.1-0.1-0.1-0.3-0.1-0.4
			c0-0.2,0-0.3,0.1-0.4c0.1-0.1,0.2-0.2,0.4-0.2c0.6-0.1,1.1-0.2,1.6-0.3c0.3-0.1,0.6-0.3,0.8-0.6c0.2-0.3,0.3-0.7,0.3-1.1
			c0-0.5,0-1,0-1.7v-5.3c0-1.4,0-2.5,0-3.4c0-0.7-0.1-1.5-0.3-2.2c-0.1-0.5-0.4-0.9-0.8-1.1c-0.5-0.2-1-0.4-1.5-0.4
			c-0.2,0-0.3-0.1-0.4-0.2c-0.1-0.1-0.1-0.2-0.2-0.4c0-0.2,0-0.3,0.2-0.4c0.1-0.1,0.2-0.2,0.4-0.2c0.8,0,1.6-0.1,2.3-0.2
			c1.1-0.2,2.1-0.4,3.2-0.7c0.3-0.1,0.7,0,0.9,0.2c0.2,0.3,0.3,0.6,0.3,0.9v1.7c0,0,0,0.1,0.1,0.1c0,0,0.1,0,0.1-0.1
			c0.2-0.4,0.5-0.7,0.8-1c0.8-0.9,1.8-1.5,2.9-2c0.7-0.2,1.4-0.3,2.1-0.3c1.8-0.1,3.6,0.5,5,1.8c1.2,1.2,1.8,3.1,1.8,5.7v7.2
			c0,0.8,0,1.4,0.1,1.9c0,0.4,0.1,0.8,0.3,1.2c0.2,0.3,0.4,0.5,0.7,0.7c0.4,0.2,0.9,0.3,1.4,0.4c0.2,0,0.3,0.1,0.4,0.2
			c0.1,0.1,0.1,0.3,0.1,0.4c0,0.1,0,0.3-0.1,0.4c-0.1,0.1-0.2,0.2-0.4,0.2c-0.6,0-1.2-0.1-1.8-0.2c-1.7-0.2-3.4-0.2-5.1,0
			c-0.7,0.1-1.3,0.1-2,0.2c-0.1,0-0.3-0.1-0.3-0.2C68,95.2,68,95.1,68,95c0-0.2,0-0.3,0.1-0.4c0.1-0.1,0.2-0.2,0.4-0.2
			c0.5,0,1-0.2,1.4-0.4c0.3-0.2,0.6-0.4,0.7-0.7c0.2-0.3,0.3-0.7,0.3-1.1c0-0.4,0-1,0-1.6V84c0-0.7,0-1.4-0.1-2.1
			c-0.1-0.6-0.2-1.3-0.5-1.9c-0.2-0.6-0.6-1-1.1-1.4c-0.6-0.4-1.3-0.6-2-0.6c-0.8,0-1.5,0.1-2.2,0.4c-0.6,0.2-1.2,0.6-1.6,1.1
			c-0.4,0.5-0.8,1-1,1.6c-0.2,0.6-0.3,1.2-0.3,1.9V90.2z"/>
		<path class="st30" d="M92.8,79.3c-0.5-0.6-1.1-1.1-1.7-1.5c-0.7-0.3-1.5-0.5-2.2-0.5c-0.8,0-1.6,0.1-2.3,0.4
			c-0.7,0.3-1.3,0.7-1.7,1.3c-0.5,0.8-0.9,1.6-1.1,2.5c-0.3,1.3-0.4,2.7-0.4,4.1c0,0.9,0.1,1.9,0.3,2.8c0.2,0.9,0.5,1.7,0.9,2.5
			c0.3,0.7,0.8,1.3,1.4,1.7c0.5,0.4,1.2,0.7,1.9,0.7c1,0,2-0.2,2.9-0.6c0.8-0.4,1.4-0.9,2-1.6L92.8,79.3z M96.8,87.9
			c0,1.2,0,2.1,0.1,2.8c0,0.6,0.1,1.2,0.4,1.7c0.2,0.4,0.6,0.7,1,0.8c0.6,0.2,1.2,0.3,1.8,0.2c0.1,0,0.2,0.1,0.3,0.2
			c0.1,0.1,0.1,0.3,0.1,0.4c0,0.1,0,0.3-0.1,0.4c0,0.1-0.2,0.2-0.3,0.2c-0.2,0-0.4,0-0.6,0H99l-0.5,0.1l-0.7,0.1
			c-0.2,0-0.5,0.1-0.9,0.2l-1.2,0.2l-1.2,0.2c-0.2,0-0.5,0.1-0.7,0.1c-0.2,0-0.4-0.2-0.6-0.6c-0.2-0.5-0.2-1.1-0.2-1.7
			c0-0.1,0-0.2-0.1-0.2c-0.1,0-0.1,0.1-0.2,0.1c-0.8,0.7-1.7,1.4-2.6,1.8c-1,0.4-2,0.6-3,0.6c-1.2,0-2.3-0.2-3.4-0.7
			c-1-0.4-1.8-1.1-2.5-1.9c-0.7-0.9-1.3-1.9-1.6-2.9c-0.4-1.3-0.6-2.6-0.6-3.9c0-1.7,0.3-3.3,0.9-4.9c0.5-1.3,1.3-2.4,2.3-3.4
			c0.9-0.9,2-1.6,3.2-2c1.2-0.4,2.4-0.6,3.6-0.6c0.6,0,1.2,0.1,1.9,0.2c0.7,0.1,1.3,0.3,1.9,0.7v-2.6c0-1.2,0-2.2-0.1-2.9
			c0-0.6-0.2-1.2-0.4-1.7c-0.2-0.4-0.6-0.7-1.1-0.8c-0.7-0.2-1.3-0.3-2-0.3c-0.1,0-0.2-0.1-0.3-0.2c-0.1-0.1-0.1-0.3-0.1-0.4
			c0-0.1,0-0.3,0.1-0.4c0-0.1,0.2-0.2,0.3-0.2l1.6-0.1l1.7-0.2c0.6-0.1,1.2-0.1,1.7-0.2c0.6-0.1,1.1-0.2,1.6-0.4
			c0.4-0.1,0.6-0.1,0.7,0.1c0.1,0.1,0.2,0.3,0.2,0.5L96.8,87.9z"/>
		<path class="st30" d="M105.2,71.4c-0.7,0-1.3-0.2-1.8-0.7c-0.5-0.4-0.8-1-0.8-1.6c0-0.6,0.3-1.2,0.7-1.7c0.5-0.5,1.1-0.7,1.8-0.7
			c0.6,0,1.2,0.2,1.7,0.7c0.4,0.5,0.7,1.1,0.7,1.7c0,0.6-0.2,1.2-0.6,1.6C106.4,71.2,105.9,71.4,105.2,71.4 M107.5,90.2
			c0,0.7,0,1.3,0,1.8c0,0.4,0.1,0.8,0.3,1.2c0.2,0.3,0.4,0.6,0.8,0.7c0.5,0.2,1,0.3,1.5,0.4c0.2,0,0.3,0.1,0.4,0.2
			c0.1,0.1,0.1,0.3,0.1,0.4c0,0.1,0,0.3-0.1,0.4c-0.1,0.1-0.2,0.2-0.4,0.2c-0.7,0-1.3-0.1-2-0.2c-0.8-0.1-1.7-0.1-2.5-0.2
			c-0.9,0-1.8,0-2.7,0.2c-0.8,0.1-1.7,0.1-2.5,0.2c-0.1,0-0.3-0.1-0.3-0.2c-0.1-0.1-0.1-0.3-0.1-0.4c0-0.2,0-0.3,0.1-0.4
			c0.1-0.1,0.2-0.2,0.4-0.2c0.6-0.1,1.2-0.2,1.7-0.4c0.4-0.1,0.7-0.4,0.9-0.7c0.2-0.3,0.3-0.7,0.3-1.1c0-0.4,0-1,0-1.6v-6.8
			c0-1.2,0-2.2-0.1-2.9c0-0.6-0.1-1.2-0.3-1.7c-0.2-0.4-0.5-0.7-0.9-0.8c-0.5-0.2-1.1-0.3-1.6-0.3c-0.2,0-0.3-0.1-0.4-0.2
			c-0.2-0.3-0.2-0.6,0-0.8c0.1-0.1,0.2-0.2,0.4-0.2l1-0.1l1.3-0.1c0.4,0,0.9-0.1,1.4-0.2s0.9-0.2,1.2-0.2c0.3,0,0.5-0.1,0.7-0.2
			c0.1-0.1,0.3-0.1,0.4-0.1c0.3,0,0.5,0.1,0.7,0.3c0.1,0.2,0.1,0.4,0.2,0.6L107.5,90.2z"/>
		<path class="st30" d="M127.1,76.5c0.9,2.1,1.8,4.2,2.7,6.3c0.9,2.1,1.8,4.2,2.7,6.3c0.1,0.2,0.1,0.3,0.3,0.2
			c0.1,0,0.2-0.1,0.3-0.2c0.5-1.5,0.9-3,1.2-4.4c0.4-1.4,0.7-2.8,1-4.3c0.1-0.4,0.2-0.8,0.2-1.2c0-0.7-0.2-1.1-0.5-1.2
			c-0.5-0.2-1.1-0.4-1.6-0.4c-0.2,0-0.3-0.1-0.4-0.2c-0.1-0.1-0.1-0.3-0.1-0.4c0-0.2,0-0.3,0.1-0.4c0.1-0.1,0.2-0.2,0.4-0.2
			c0.6,0,1.2,0.1,1.9,0.2c0.6,0.1,1.1,0.2,1.7,0.2c0.6,0,1.2-0.1,1.8-0.2c0.5-0.1,1-0.2,1.6-0.2c0.1,0,0.3,0.1,0.4,0.2
			c0.1,0.1,0.1,0.3,0.1,0.4c0,0.2,0,0.3-0.1,0.5c0,0.1-0.2,0.2-0.3,0.2c-0.5,0-1,0.2-1.4,0.4c-0.4,0.2-0.7,0.5-1,0.9
			c-0.3,0.4-0.5,0.8-0.7,1.3c-0.2,0.5-0.4,1-0.5,1.6c-1.4,4.8-2.9,9.6-4.5,14.4c-0.1,0.2-0.2,0.3-0.5,0.3s-0.5-0.1-0.5-0.2
			c-0.8-2.2-1.7-4.4-2.5-6.7c-0.8-2.2-1.8-4.5-2.8-6.8c-0.1-0.1-0.1-0.2-0.2-0.2s-0.2,0.1-0.2,0.2c-0.5,1.3-1,2.6-1.4,3.7
			s-0.9,2.3-1.3,3.3l-1.2,3.2c-0.4,1-0.8,2.1-1.2,3.2c-0.1,0.2-0.2,0.3-0.6,0.3c-0.3,0-0.5-0.1-0.5-0.3c-0.9-2.5-1.7-5-2.6-7.4
			s-1.6-4.9-2.4-7.3c-0.2-0.6-0.4-1.2-0.7-1.7c-0.2-0.4-0.4-0.8-0.7-1.1c-0.2-0.3-0.5-0.5-0.9-0.6c-0.4-0.2-0.8-0.3-1.2-0.3
			c-0.1,0-0.3-0.1-0.3-0.2c-0.1-0.1-0.1-0.3-0.1-0.4c0-0.2,0-0.3,0.1-0.4c0-0.1,0.2-0.2,0.3-0.2c0.7,0,1.5,0.1,2.2,0.2
			c0.8,0.1,1.6,0.2,2.3,0.2c0.8,0,1.6-0.1,2.4-0.2c0.8-0.1,1.6-0.2,2.3-0.2c0.1,0,0.3,0.1,0.3,0.2c0.1,0.1,0.1,0.3,0.2,0.4
			c0,0.2,0,0.3-0.1,0.4c-0.1,0.1-0.2,0.2-0.4,0.2c-0.6,0-1.2,0.2-1.7,0.6c-0.3,0.2-0.5,0.6-0.5,1.1c0,0.2,0,0.5,0.1,0.7
			c0.1,0.3,0.1,0.6,0.2,0.9c0.4,1.4,0.8,2.9,1.2,4.2c0.4,1.4,0.9,2.8,1.4,4.2c0.1,0.2,0.2,0.2,0.3,0.2c0.1,0,0.3-0.1,0.3-0.2
			c1.6-4.5,3.3-8.7,4.9-12.7c0.1-0.2,0.3-0.3,0.5-0.3C126.7,76.2,126.9,76.3,127.1,76.5"/>
		<path class="st30" d="M154,85.5c0-1-0.1-2.1-0.2-3.1c-0.1-0.9-0.4-1.8-0.8-2.7c-0.3-0.8-0.9-1.4-1.5-1.9c-0.7-0.5-1.6-0.8-2.5-0.7
			c-1,0-1.9,0.2-2.8,0.7c-0.7,0.5-1.3,1.2-1.7,1.9c-0.4,0.9-0.7,1.8-0.9,2.7c-0.2,1.1-0.2,2.1-0.2,3.2c0,1,0.1,2,0.2,3
			c0.1,1,0.4,1.9,0.8,2.8c0.4,0.8,0.9,1.5,1.6,2c0.8,0.6,1.7,0.8,2.6,0.8c0.9,0,1.9-0.2,2.7-0.8c0.7-0.5,1.2-1.2,1.6-2
			c0.4-0.9,0.7-1.8,0.8-2.8C153.9,87.6,154,86.6,154,85.5 M158.4,85.1c0,1.6-0.2,3.1-0.7,4.6c-0.4,1.2-1.1,2.4-2,3.3
			c-0.9,0.9-2,1.6-3.2,2.1c-1.3,0.5-2.7,0.7-4.1,0.7c-1.3,0-2.5-0.2-3.7-0.7c-1.1-0.4-2.1-1.1-2.9-1.9c-0.9-0.9-1.5-2.1-1.9-3.3
			c-0.5-1.5-0.8-3.1-0.7-4.6c0-1.4,0.2-2.7,0.7-4c0.4-1.2,1.1-2.2,2-3.1c0.9-0.9,2-1.6,3.1-2c1.3-0.5,2.6-0.7,4-0.7
			c1.3,0,2.6,0.2,3.8,0.6c1.1,0.4,2.1,1,3,1.8c0.9,0.8,1.6,1.9,2,3C158.3,82.2,158.5,83.6,158.4,85.1"/>
		<path class="st30" d="M165.5,90.2c0,0.7,0,1.3,0.1,1.8c0,0.4,0.2,0.8,0.4,1.2c0.3,0.4,0.7,0.6,1.2,0.7c0.8,0.2,1.5,0.3,2.3,0.4
			c0.2,0,0.3,0.1,0.4,0.2c0.1,0.1,0.1,0.3,0.1,0.4c0,0.1,0,0.3-0.1,0.4c-0.1,0.1-0.2,0.2-0.4,0.2c-1.1,0-2.1,0-3.2-0.2
			c-0.9-0.1-1.8-0.1-2.7-0.2c-0.9,0-1.8,0.1-2.7,0.2c-0.9,0.1-1.8,0.1-2.7,0.2c-0.1,0-0.3-0.1-0.3-0.2c-0.1-0.1-0.1-0.3-0.1-0.4
			c0-0.2,0-0.3,0.1-0.4c0.1-0.1,0.2-0.2,0.4-0.2c0.6-0.1,1.2-0.2,1.8-0.4c0.4-0.1,0.7-0.4,1-0.7c0.2-0.3,0.3-0.7,0.4-1.1
			c0-0.4,0.1-1,0.1-1.6v-6.2c0-1.4,0-2.5-0.1-3.3c0-0.6-0.2-1.3-0.4-1.9c-0.2-0.4-0.6-0.7-1-0.9c-0.6-0.2-1.2-0.3-1.9-0.3
			c-0.1,0-0.3-0.1-0.3-0.2c-0.1-0.3-0.1-0.6,0-0.8c0.1-0.1,0.2-0.2,0.4-0.2c0.6-0.1,1.4-0.1,2.4-0.2c1-0.1,2.1-0.3,3.1-0.5
			c0.3-0.1,0.7-0.1,1,0c0.2,0.1,0.4,0.3,0.3,0.7l-0.1,2.7c0,0.1,0,0.1,0,0.1s0.1,0,0.1-0.1c0.5-1.1,1.3-2.1,2.2-2.8
			c1-0.7,2.2-1.1,3.4-1.1c1-0.1,1.9,0.2,2.6,0.9c0.6,0.6,0.9,1.4,0.9,2.2c0,0.5-0.2,1-0.6,1.3c-0.4,0.4-1,0.6-1.6,0.6
			c-0.5,0.1-1-0.1-1.4-0.5c-0.2-0.3-0.4-0.6-0.4-1c0-0.3-0.1-0.6-0.2-0.9c-0.3-0.3-0.6-0.4-1-0.3c-0.5,0-1.1,0.2-1.5,0.5
			c-0.4,0.4-0.8,0.8-1.1,1.2c-0.3,0.5-0.5,1-0.7,1.5c-0.1,0.4-0.2,0.8-0.2,1.2L165.5,90.2z"/>
		<path class="st30" d="M195.7,95.5l-1.4-0.1c-0.5,0-1,0-1.5,0s-1.1,0-1.7,0.1s-1.1,0.1-1.6,0.1c-0.2,0-0.3-0.1-0.4-0.2
			c-0.1-0.1-0.1-0.2-0.2-0.4c-0.2-1.2-0.6-2.3-1.1-3.3c-0.5-1-1.1-1.9-1.8-2.7c-0.6-0.8-1.3-1.4-2.2-1.9c-0.7-0.4-1.5-0.7-2.3-0.7
			v3.3c0,0.8,0,1.5,0,2c0,0.5,0.2,0.9,0.4,1.4c0.2,0.3,0.4,0.6,0.7,0.8c0.5,0.2,1,0.4,1.5,0.5c0.2,0,0.3,0.1,0.4,0.3
			c0.1,0.1,0.1,0.3,0.1,0.4c0,0.1,0,0.3-0.1,0.4c-0.1,0.1-0.2,0.2-0.4,0.2c-0.7,0-1.4,0-2.2-0.2c-0.7-0.1-1.5-0.2-2.2-0.2
			c-0.9,0-1.8,0.1-2.7,0.2c-0.9,0.1-1.8,0.1-2.7,0.2c-0.1,0-0.3-0.1-0.3-0.2c-0.1-0.1-0.1-0.3-0.1-0.4c0-0.2,0-0.3,0.1-0.4
			c0.1-0.1,0.2-0.2,0.4-0.2c0.6,0,1.2-0.2,1.8-0.4c0.4-0.1,0.8-0.4,1-0.7c0.2-0.3,0.3-0.7,0.3-1.1c0-0.4,0-1,0-1.6V73.8
			c0-1.2,0-2.2-0.1-2.9c0-0.6-0.2-1.2-0.5-1.7c-0.3-0.4-0.7-0.7-1.1-0.8c-0.7-0.2-1.4-0.3-2.1-0.3c-0.1,0-0.3-0.1-0.3-0.2
			c-0.1-0.1-0.1-0.3-0.1-0.4c0-0.1,0-0.3,0.1-0.4c0.1-0.1,0.2-0.2,0.4-0.2c1-0.1,2.1-0.1,3.4-0.2c1.2-0.1,2.3-0.3,3.4-0.6
			c0.4-0.1,0.7-0.1,0.8,0.1c0.1,0.1,0.2,0.3,0.2,0.5v18c0.5-0.3,1-0.7,1.5-1.1c0.5-0.4,0.9-0.8,1.3-1.3c0.4-0.4,0.8-0.9,1.1-1.3
			l0.9-1.1c0.6-0.7,0.8-1.3,0.7-1.6s-0.6-0.5-1.5-0.6c-0.1,0-0.3-0.1-0.3-0.2c-0.1-0.1-0.1-0.3-0.1-0.4c0-0.2,0-0.3,0.1-0.4
			c0.1-0.1,0.2-0.2,0.3-0.2c0.4,0,0.8,0,1.2,0s0.6,0.1,0.9,0.1l0.8,0.1c0.3,0,0.6,0,0.9,0c0.7,0,1.3-0.1,2-0.2
			c0.7-0.1,1.3-0.1,2-0.2c0.1,0,0.2,0.1,0.3,0.2c0.1,0.1,0.1,0.3,0.1,0.4c0,0.1,0,0.3-0.1,0.4c-0.1,0.1-0.2,0.2-0.3,0.2
			c-0.5,0-0.9,0.1-1.4,0.2c-0.4,0.1-0.7,0.3-1,0.5c-0.3,0.2-0.6,0.4-0.9,0.7l-1,1l-1,0.9c-0.4,0.4-0.9,0.8-1.4,1.2l-1.4,1.2
			c-0.5,0.4-0.9,0.7-1.2,1c-0.1,0.1-0.2,0.2-0.1,0.2c0,0.1,0.1,0.1,0.2,0.1c1,0,1.9,0.2,2.8,0.6c0.7,0.3,1.3,0.7,1.9,1.2
			c0.5,0.5,0.9,1.1,1.3,1.7c0.4,0.6,0.7,1.3,1.1,1.9c0.3,0.7,0.7,1.3,1.1,2c0.5,0.7,1,1.3,1.6,1.8c0.2,0.2,0.5,0.3,0.7,0.3
			c0.3,0.1,0.6,0.1,0.9,0.2c0.2,0,0.3,0.1,0.4,0.2c0.1,0.1,0.1,0.3,0.1,0.5c0,0.1,0,0.3-0.1,0.4C196,95.5,195.8,95.5,195.7,95.5"/>
		<path class="st30" d="M210.7,76.1c-0.1,0.4-0.2,0.8-0.2,1.1c-0.1,0.5-0.1,1-0.1,1.4c0,0.5,0,1.1,0,1.7c0,0.6,0,1,0,1.3
			c0,0.1-0.1,0.2-0.2,0.2c-0.1,0.1-0.2,0.1-0.4,0.1c-0.1,0-0.3,0-0.4,0c-0.1,0-0.2-0.1-0.2-0.2c-0.2-1.3-0.7-2.4-1.5-3.4
			c-0.9-0.9-2.1-1.3-3.4-1.2c-0.9,0-1.8,0.2-2.6,0.8c-0.7,0.5-1,1.3-1,2.1c0,0.7,0.3,1.3,0.9,1.7c0.7,0.5,1.5,0.8,2.2,1.1l1.4,0.5
			l1.3,0.5c0.7,0.3,1.4,0.7,2.1,1.1c0.6,0.3,1.2,0.8,1.6,1.3c0.5,0.5,0.8,1.1,1.1,1.7c0.3,0.7,0.4,1.4,0.4,2.2
			c0,0.9-0.2,1.9-0.7,2.7c-0.4,0.7-1,1.3-1.7,1.7c-0.7,0.5-1.6,0.8-2.4,1c-0.9,0.2-1.8,0.3-2.7,0.3c-0.8,0-1.6-0.1-2.5-0.2
			c-0.8-0.1-1.6-0.4-2.4-0.7c-0.2-0.1-0.4,0-0.5,0.1c-0.2,0.2-0.3,0.4-0.4,0.6c0,0.1-0.1,0.1-0.2,0.2c-0.1,0-0.3,0-0.4,0
			c-0.1,0-0.2,0-0.3-0.1c-0.1,0-0.2-0.1-0.2-0.2c0-0.3,0-0.6,0.1-0.9c0.1-0.4,0.1-0.7,0.1-1.1c0-0.3,0-0.7-0.1-1.1
			c0-0.4-0.1-0.8-0.1-1.2s-0.1-0.8-0.1-1.1s0-0.5,0-0.7c0-0.1,0.1-0.2,0.2-0.2c0.1-0.1,0.2-0.1,0.4-0.1c0.1,0,0.3,0,0.4,0
			c0.1,0,0.2,0.1,0.2,0.2c0.2,0.7,0.4,1.5,0.8,2.2c0.3,0.6,0.7,1.1,1.2,1.6c0.5,0.5,1.1,0.8,1.7,1c0.8,0.2,1.6,0.3,2.4,0.3
			c0.9,0,1.8-0.3,2.5-0.8c0.7-0.6,1-1.5,1-2.4c0-0.8-0.3-1.6-1-2.1c-0.7-0.6-1.4-1-2.2-1.4l-1.2-0.6l-1.2-0.5l-1.8-0.8
			c-0.6-0.3-1.1-0.6-1.6-1c-0.5-0.4-0.9-0.9-1.1-1.5c-0.3-0.7-0.4-1.4-0.4-2.2c0-0.9,0.2-1.8,0.7-2.6c0.4-0.7,1-1.3,1.7-1.7
			c0.7-0.5,1.5-0.8,2.3-1c0.8-0.2,1.7-0.3,2.5-0.3c0.7,0,1.4,0.1,2.1,0.3c0.7,0.2,1.4,0.6,2,1c0.1,0.1,0.3,0.1,0.4,0
			c0.2-0.1,0.3-0.3,0.4-0.7c0-0.1,0.1-0.2,0.3-0.2c0.1,0,0.3,0,0.4,0c0.1,0,0.3,0.1,0.4,0.1C210.6,76,210.7,76,210.7,76.1"/>
		<g>
			<defs>
				<rect id="SVGID_46_" x="213.7" y="74.7" width="5.7" height="20"/>
			</defs>
			<clipPath id="SVGID_47_">
				<use xlink:href="#SVGID_46_"  style="overflow:visible;"/>
			</clipPath>
			<g class="st31">
				<path class="st32" d="M216.7,92.6c-0.4-1-1.1-1.9-1.9-2.6C215.1,91,215.8,92,216.7,92.6L216.7,92.6z M217.8,89
					c0.8,1.2,1.2,2.6,1.4,4.1c0,1.3-0.6,1.6-1.1,1.6c-1.1-0.2-2.1-0.9-2.6-1.9c-0.8-1.1-1.4-2.4-1.8-3.7c0-0.3,0.2-0.4,0.3-0.3
					c0.8,0.1,1.6,0.6,3.4,4.4c0.2,0.2,0.4,0.2,0.6,0.1c0.3-0.2,0.4-0.5,0.4-0.9c-0.1-1-0.4-2.1-0.9-3L217.8,89z"/>
				<path class="st32" d="M215.5,83.3c0.8,0.8,1.1,1,1.1,2.9c0.4,0.6,1.1,1.6,1.6,1.6c0.2,0,0.3-0.1,0.3-0.5c-0.2-1-0.5-2-0.9-3
					l0.4-0.1c0.7,1.4,1.2,2.9,1.4,4.4c0,0.7-0.2,1.1-0.6,1.1c-0.3,0-0.6-0.2-0.9-0.4l0,0l0.4,0.9l-0.3,0.2c-0.3-1-0.8-1.9-1.4-2.7
					c0,0.6,0,1.1,0,1.7l-0.2-0.2c-0.8-0.9-0.9-1.1-0.9-3c-0.5-0.5-0.8-1.2-0.8-1.9c0-0.2,0-0.6,0.2-0.6s0.4,0.5,0.6,0.7L215.5,83.3z
					"/>
				<path class="st32" d="M218.1,82.8c0.1,0,0.1-0.1,0.2-0.3s-1-3-1.5-3.3C217.2,82.3,217.5,82.7,218.1,82.8 M216.4,77.3
					c0.4,0.6,1,1.4,1.6,1.4c0.1,0,0.4,0,0.4-0.4c-0.2-0.9-0.5-1.9-0.9-2.8l0.3-0.1c0.7,1.2,1.2,2.5,1.4,3.9c0,0.7-0.4,0.9-0.6,0.9
					c-0.2,0-0.4-0.1-0.7-0.1c0.5,0.9,0.9,2,1.1,3c0,0.6-0.5,1.2-1.1,1.3c-1,0-1.9-3.5-1.9-5c0-0.3,0.1-0.5,0.2-0.7
					c-0.5-0.6-2.3-2.1-2.3-3.4c0-0.3,0.2-0.6,0.3-0.6s0.6,0.5,0.8,0.8L216.4,77.3z"/>
			</g>
		</g>
	</g>
</g>
</svg>
